<?xml version="1.0" standalone="no"?>
<!DOCTYPE svg PUBLIC "-//W3C//DTD SVG 20010904//EN"
 "http://www.w3.org/TR/2001/REC-SVG-20010904/DTD/svg10.dtd">
<svg version="1.0" xmlns="http://www.w3.org/2000/svg"
 width="500.000000pt" height="500.000000pt" viewBox="0 0 500.000000 500.000000"
 preserveAspectRatio="xMidYMid meet">

<g transform="translate(0.000000,500.000000) scale(0.100000,-0.100000)"
fill="#000000" stroke="none">
<path d="M1395 4339 c-190 -14 -414 -81 -568 -171 -429 -249 -686 -709 -762
-1363 -19 -166 -19 -517 0 -696 56 -532 247 -926 564 -1164 282 -213 624 -295
1114 -267 322 19 539 54 685 113 l52 21 0 719 0 719 -640 0 -640 0 0 -25 0
-25 608 -2 607 -3 0 -675 0 -674 -48 -18 c-71 -26 -273 -65 -417 -80 -69 -7
-237 -12 -375 -12 -277 -1 -379 13 -559 74 -439 148 -724 489 -846 1010 -73
314 -85 773 -30 1119 121 749 520 1220 1125 1326 133 23 356 30 545 16 185
-14 287 -31 401 -67 l77 -24 54 -148 c30 -81 322 -873 649 -1760 l594 -1613
49 3 50 3 627 1770 627 1770 -32 3 c-19 2 -34 -2 -40 -10 -5 -8 -281 -793
-615 -1744 -333 -951 -611 -1728 -616 -1727 -5 1 -297 785 -649 1742 l-640
1740 -46 20 c-134 57 -283 86 -515 101 -177 11 -229 11 -390 -1z"/>
</g>
</svg>
